<svg width="48" height="49" viewBox="0 0 48 49" fill="none" xmlns="http://www.w3.org/2000/svg">
<rect y="0.5" width="48" height="48" rx="24" fill="black"/>
<rect y="0.5" width="48" height="48" rx="24" fill="#C3F53C"/>
<rect x="22.3486" y="14.1086" width="5.4806" height="22.079" rx="2.7403" transform="rotate(30 22.3486 14.1086)" fill="url(#paint0_linear_85_280)"/>
<rect x="22.3486" y="14.1086" width="5.4806" height="22.079" rx="2.7403" transform="rotate(30 22.3486 14.1086)" fill="url(#paint1_linear_85_280)"/>
<rect x="22.3486" y="14.1086" width="5.4806" height="22.079" rx="2.7403" transform="rotate(30 22.3486 14.1086)" fill="black"/>
<circle cx="32.838" cy="16.8829" r="2.82051" transform="rotate(30 32.838 16.8829)" fill="black"/>
<rect x="27.9004" y="19.7944" width="5.4806" height="14.7673" rx="2.7403" transform="rotate(30 27.9004 19.7944)" fill="#B4B7FF"/>
<rect x="27.9004" y="19.7944" width="5.4806" height="14.7673" rx="2.7403" transform="rotate(30 27.9004 19.7944)" fill="black"/>
<defs>
<linearGradient id="paint0_linear_85_280" x1="25.5318" y1="36.3313" x2="25.1443" y2="14.131" gradientUnits="userSpaceOnUse">
<stop stop-color="#26FFD8"/>
<stop offset="1" stop-color="#26BEFF"/>
</linearGradient>
<linearGradient id="paint1_linear_85_280" x1="25.5318" y1="36.3313" x2="25.1443" y2="14.131" gradientUnits="userSpaceOnUse">
<stop stop-color="#A026FF"/>
<stop offset="1" stop-color="#4200FF"/>
</linearGradient>
</defs>
</svg>
