<svg width="30.000000" height="30.000000" viewBox="0 0 30 30" fill="none" xmlns="http://www.w3.org/2000/svg" xmlns:xlink="http://www.w3.org/1999/xlink">
    <defs>
        <clipPath id="clip63_538">
            <rect id="Ресурс 21x 1" width="12.000000" height="21.000000" transform="translate(9.000000 4.500000)" fill="white" fill-opacity="0"/>
        </clipPath>
    </defs>
    <rect id="Frame 6" rx="15.000000" width="30.000000" height="30.000000" fill="#FFFFFF" fill-opacity="1.000000"/>
    <rect id="Frame 6" rx="15.000000" width="30.000000" height="30.000000" fill="#C3F53C" fill-opacity="1.000000"/>
    <rect id="Ресурс 21x 1" width="12.000000" height="21.000000" transform="translate(9.000000 4.500000)" fill="#FFFFFF" fill-opacity="0"/>
    <g clip-path="url(#clip63_538)">
        <path id="Vector" d="M21 15.1835L21 15.2098C20.7686 15.3438 20.5459 15.4929 20.3203 15.6383C19.709 16.0327 19.0947 16.4218 18.4805 16.8095C17.8721 17.1929 17.2627 17.5734 16.6602 17.9666C16.1445 18.303 15.6182 18.6197 15.0986 18.95C15.0283 18.9947 14.9775 18.9939 14.9111 18.9489C14.6436 18.7682 14.3672 18.6051 14.0957 18.4304C13.5068 18.0497 12.9102 17.6812 12.3203 17.2992C11.665 16.8745 11.002 16.4651 10.3438 16.0459C10.082 15.8795 9.81543 15.723 9.55762 15.5493C9.37695 15.4279 9.19727 15.301 9 15.2097L9 15.1834C9.03027 15.1658 9.04395 15.1349 9.06055 15.1045C9.30762 14.6591 9.55469 14.2133 9.80371 13.7697C10.2744 12.9349 10.749 12.1038 11.2158 11.267C11.5977 10.583 11.9746 9.8959 12.3643 9.21741C12.6357 8.74692 12.8936 8.26801 13.1582 7.79388C13.4648 7.245 13.7734 6.69708 14.082 6.1492C14.2119 5.9184 14.3447 5.68979 14.4736 5.45822C14.6494 5.14166 14.8359 4.83124 14.9873 4.49969L15.0117 4.49969C15.2119 4.86316 15.4072 5.22876 15.6162 5.58615C15.8682 6.01697 16.1016 6.46048 16.3457 6.89633C16.6533 7.44385 16.9658 7.98843 17.2734 8.53577C17.5117 8.96027 17.7422 9.39001 17.9844 9.81216C18.29 10.3455 18.5869 10.8845 18.8896 11.42C19.1426 11.8696 19.3965 12.3199 19.6445 12.7727C19.9639 13.3531 20.292 13.9279 20.6162 14.5049C20.7432 14.7315 20.8721 14.9573 21 15.1834L21 15.1835Z" fill="#000000" fill-opacity="1.000000" fill-rule="nonzero"/>
        <path id="Vector" d="M14.9873 25.5C14.8232 25.2411 14.6709 24.9732 14.4932 24.7257C14.3145 24.477 14.1572 24.213 13.9863 23.959C13.6172 23.4087 13.2607 22.8483 12.8906 22.2986C12.5146 21.7413 12.1465 21.1788 11.7783 20.6158C11.459 20.1276 11.1309 19.6458 10.8096 19.1593C10.5869 18.8222 10.3701 18.4803 10.1475 18.1434C9.77637 17.5827 9.40234 17.0242 9.04492 16.4435C9.20703 16.545 9.36816 16.6464 9.53027 16.7483C10.0898 17.1013 10.6504 17.453 11.209 17.8083C11.709 18.1258 12.2051 18.4491 12.7041 18.7667C13.1543 19.0531 13.6113 19.3279 14.0566 19.622C14.3438 19.8113 14.6406 19.9818 14.9268 20.1715C14.9824 20.2083 15.0234 20.2082 15.0811 20.1718C15.6221 19.8293 16.168 19.4928 16.71 19.1507C17.3076 18.7732 17.9033 18.3919 18.5 18.0119C19.3262 17.485 20.1533 16.9577 20.9795 16.4307C20.9814 16.4697 20.9561 16.4941 20.9375 16.5221C20.7637 16.7797 20.5957 17.0417 20.4238 17.3005C20.0449 17.8713 19.6709 18.446 19.2891 19.0145C18.9229 19.5584 18.5664 20.1093 18.2051 20.657C17.8447 21.2048 17.4824 21.7519 17.1221 22.3003C16.793 22.8025 16.4717 23.3117 16.1348 23.8075C15.7539 24.3668 15.3848 24.9349 15.0117 25.4999L14.9873 25.4999L14.9873 25.5Z" fill="#000000" fill-opacity="1.000000" fill-rule="nonzero"/>
    </g>
</svg>
