<svg width="190.290039" height="40.084633" viewBox="0 0 190.29 40.0846" fill="none" xmlns="http://www.w3.org/2000/svg" xmlns:xlink="http://www.w3.org/1999/xlink">
	<desc>
			Created with Pixso.
	</desc>
	<defs>
		<clipPath id="clip63_1686">
			<rect id="Ресурс 21x 2" width="39.000000" height="38.000000" transform="translate(0.000000 1.319344)" fill="white" fill-opacity="0"/>
		</clipPath>
	</defs>
	<path id="RobinRocket" d="M46.04 23L49.7314 23L49.7314 16.8125L52.4209 16.8125L55.7314 23L59.8037 23L56.0947 16.2148C58.0811 15.3652 59.1826 13.6309 59.1826 11.2461C59.1826 7.77734 56.8916 5.54492 52.9248 5.54492L46.04 5.54492L46.04 23ZM49.7314 13.8477L49.7314 8.5625L52.2158 8.5625C54.3486 8.5625 55.3799 9.50586 55.3799 11.2461C55.3799 12.9746 54.3486 13.8477 52.2334 13.8477L49.7314 13.8477ZM67.4161 23.2578C71.3888 23.2578 73.8556 20.5391 73.8556 16.5078C73.8556 12.4473 71.3888 9.74023 67.4161 9.74023C63.4435 9.74023 60.9708 12.4473 60.9708 16.5078C60.9708 20.5391 63.4435 23.2578 67.4161 23.2578ZM67.4337 20.4453C65.5997 20.4453 64.6622 18.7637 64.6622 16.4785C64.6622 14.1934 65.5997 12.5059 67.4337 12.5059C69.2325 12.5059 70.17 14.1934 70.17 16.4785C70.17 18.7637 69.2325 20.4453 67.4337 20.4453ZM76.2957 23L79.8758 23L79.8758 20.9023L80.034 20.9023C80.5379 21.9922 81.6395 23.2109 83.7547 23.2109C86.7371 23.2109 89.0633 20.8496 89.0633 16.4727C89.0633 11.9727 86.6317 9.74023 83.7606 9.74023C81.5692 9.74023 80.5203 11.041 80.034 12.1074L79.9285 12.1074L79.9285 5.54492L76.2957 5.54492L76.2957 23ZM79.8465 16.4551C79.8465 14.1172 80.8367 12.6289 82.6004 12.6289C84.3992 12.6289 85.3543 14.1875 85.3543 16.4551C85.3543 18.7402 84.3817 20.3223 82.6004 20.3223C80.8543 20.3223 79.8465 18.7871 79.8465 16.4551ZM91.4726 23L95.1054 23L95.1054 9.91016L91.4726 9.91016L91.4726 23ZM93.3007 8.22266C94.3788 8.22266 95.2694 7.39648 95.2694 6.38281C95.2694 5.375 94.3788 4.54883 93.3007 4.54883C92.2226 4.54883 91.3378 5.375 91.3378 6.38281C91.3378 7.39648 92.2226 8.22266 93.3007 8.22266ZM101.634 15.4297C101.64 13.7422 102.647 12.7578 104.112 12.7578C105.571 12.7578 106.45 13.7129 106.438 15.3125L106.438 23L110.071 23L110.071 14.6621C110.071 11.6152 108.278 9.74023 105.554 9.74023C103.608 9.74023 102.202 10.6953 101.616 12.2188L101.464 12.2188L101.464 9.91016L98.001 9.91016L98.001 23L101.634 23L101.634 15.4297Z" fill="#C3F53C" fill-opacity="1.000000" fill-rule="evenodd"/>
	<path id="RobinRocket" d="M113.592 23L115.702 23L115.702 16.1797L119.522 16.1797C119.674 16.1797 119.821 16.1797 119.967 16.1738L123.647 23L126.102 23L122.159 15.7871C124.379 15.0312 125.422 13.2148 125.422 10.9004C125.422 7.8125 123.577 5.54492 119.487 5.54492L113.592 5.54492L113.592 23ZM115.702 14.2754L115.702 7.41992L119.422 7.41992C122.252 7.41992 123.342 8.80273 123.342 10.9004C123.342 12.9922 122.252 14.2754 119.452 14.2754L115.702 14.2754ZM133.842 23.2754C137.387 23.2754 139.771 20.5801 139.771 16.5254C139.771 12.4297 137.387 9.74023 133.842 9.74023C130.297 9.74023 127.906 12.4297 127.906 16.5254C127.906 20.5801 130.297 23.2754 133.842 23.2754ZM133.842 21.4648C131.146 21.4648 129.922 19.1504 129.922 16.5254C129.922 13.9004 131.146 11.5449 133.842 11.5449C136.531 11.5449 137.762 13.9004 137.762 16.5254C137.762 19.1504 136.531 21.4648 133.842 21.4648ZM148.16 23.2754C151.054 23.2754 152.965 21.5 153.304 19.1797L151.295 19.1797C150.92 20.6152 149.724 21.4648 148.16 21.4648C145.775 21.4648 144.24 19.4902 144.24 16.4551C144.24 13.4902 145.804 11.5449 148.16 11.5449C149.929 11.5449 150.99 12.6348 151.295 13.8301L153.304 13.8301C152.965 11.375 150.885 9.74023 148.125 9.74023C144.58 9.74023 142.224 12.5352 142.224 16.5254C142.224 20.4453 144.474 23.2754 148.16 23.2754ZM156.237 23L158.247 23L158.247 18.1016L159.653 16.7949L164.558 23L167.112 23L161.171 15.5L166.702 9.91016L164.218 9.91016L158.487 15.7402L158.247 15.7402L158.247 5.54492L156.237 5.54492L156.237 23ZM174.239 23.2754C176.899 23.2754 178.839 21.9453 179.454 19.9648L177.508 19.4199C176.999 20.7852 175.815 21.4648 174.239 21.4648C171.878 21.4648 170.249 19.9414 170.155 17.1348L179.659 17.1348L179.659 16.2852C179.659 11.4102 176.758 9.74023 174.034 9.74023C170.489 9.74023 168.133 12.5352 168.133 16.5547C168.133 20.5801 170.454 23.2754 174.239 23.2754ZM170.155 15.4004C170.29 13.3613 171.731 11.5449 174.034 11.5449C176.214 11.5449 177.614 13.1797 177.614 15.4004L170.155 15.4004ZM188.421 9.91016L185.626 9.91016L185.626 6.77539L183.611 6.77539L183.611 9.91016L181.636 9.91016L181.636 11.6152L183.611 11.6152L183.611 19.7949C183.611 22.0801 185.456 23.1699 187.161 23.1699C187.911 23.1699 188.386 23.0352 188.661 22.9297L188.251 21.125C188.081 21.1602 187.806 21.2246 187.361 21.2246C186.476 21.2246 185.626 20.9551 185.626 19.25L185.626 11.6152L188.421 11.6152L188.421 9.91016Z" fill="#FFFFFF" fill-opacity="1.000000" fill-rule="evenodd"/>
	<rect id="Ресурс 21x 2" width="39.000000" height="38.000000" transform="translate(0.000000 1.319344)" fill="#FFFFFF" fill-opacity="0"/>
	<g clip-path="url(#clip63_1686)">
		<path id="Vector" d="M33.874 10.1847L33.459 6.72697L29.917 6.32261C29.5674 6.2929 29.4229 5.87992 29.6758 5.63366L33.8711 1.53877C34.0225 1.39121 34.2285 1.31168 34.4385 1.31982L36.833 1.41468C37.9658 1.45924 38.8564 2.32833 38.9023 3.43362L38.999 5.77116C39.0078 5.97622 38.9258 6.17744 38.7754 6.325L34.5801 10.4194C34.3271 10.6657 33.9033 10.5248 33.874 10.1842L33.874 10.1847Z" fill="#FFFFFF" fill-opacity="1.000000" fill-rule="nonzero"/>
		<path id="Vector" d="M31.5967 19.0821L18.9473 31.4276C18.0283 32.3244 16.4541 31.7352 16.3867 30.4684L16.3662 30.0822C16.1777 26.5819 17.5205 23.1674 20.0605 20.689L32.8311 8.2256L33.4727 13.8646C33.6924 15.7916 33.002 17.7113 31.5977 19.0821L31.5967 19.0821Z" fill="#C3F53C" fill-opacity="1.000000" fill-rule="nonzero"/>
		<path id="Vector" d="M20.9053 8.64865L8.25586 20.9937C7.33691 21.8906 7.94043 23.4266 9.23828 23.4927L9.63379 23.5128C13.2207 23.6968 16.7197 22.3864 19.2588 19.9076L32.0293 7.44515L26.251 6.81849C24.2773 6.60432 22.3096 7.27794 20.9053 8.64865Z" fill="#C3F53C" fill-opacity="1.000000" fill-rule="nonzero"/>
		<path id="Vector" d="M18.083 38.8599L22.0312 30.2739C22.1846 29.9395 22.54 29.4824 22.9814 29.0527L32.374 19.8855C33.4443 18.8411 34.3887 18.5263 34.0146 19.3389L32.749 22.0918C30.917 26.0755 26.6807 31.5239 21.4316 36.6469L19.7236 38.3132C18.6533 39.3577 17.71 39.6724 18.083 38.8599Z" fill="#FFFFFF" fill-opacity="1.000000" fill-rule="nonzero"/>
		<path id="Vector" d="M0.488281 21.6879L9.42871 17.9753C9.77637 17.8306 10.249 17.4871 10.6895 17.0574L20.083 7.89023C21.1523 6.84579 21.457 5.90627 20.6104 6.25745L17.7441 7.44802C13.5947 9.17087 7.97266 13.2662 2.72363 18.3893L1.01562 20.0556C-0.0537109 21.1 -0.358398 22.0396 0.488281 21.6884L0.488281 21.6879Z" fill="#FFFFFF" fill-opacity="1.000000" fill-rule="nonzero"/>
	</g>
	<g opacity="0.500000">
		<path id="Vector" d="M158.608 37.9494C158.117 37.9494 157.673 37.8248 157.274 37.5757C156.876 37.3266 156.559 36.985 156.324 36.5508C156.097 36.1095 155.982 35.6113 155.982 35.0561C155.982 34.501 156.097 34.0063 156.324 33.5721C156.559 33.1308 156.876 32.7856 157.274 32.5365C157.673 32.2874 158.117 32.1629 158.608 32.1629C158.993 32.1629 159.338 32.2483 159.645 32.4191C159.95 32.5899 160.182 32.7999 160.338 33.049L160.392 33.049L160.338 32.2803L160.338 30.1344L161.513 30.1344L161.513 37.7786L160.392 37.7786L160.392 37.0739L160.338 37.0739C160.182 37.3159 159.95 37.5223 159.645 37.6932C159.338 37.864 158.993 37.9494 158.608 37.9494ZM158.779 36.8711C159.064 36.8711 159.327 36.7963 159.569 36.6469C159.818 36.4974 160.018 36.2839 160.168 36.0063C160.317 35.7287 160.392 35.412 160.392 35.0561C160.392 34.7002 160.317 34.3871 160.168 34.1166C160.018 33.839 159.818 33.6255 159.569 33.476C159.327 33.3266 159.064 33.2518 158.779 33.2518C158.495 33.2518 158.228 33.3266 157.979 33.476C157.729 33.6255 157.53 33.839 157.381 34.1166C157.231 34.3871 157.157 34.7002 157.157 35.0561C157.157 35.412 157.231 35.7287 157.381 36.0063C157.53 36.2839 157.729 36.4974 157.979 36.6469C158.228 36.7963 158.495 36.8711 158.779 36.8711Z" fill="#FFFFFF" fill-opacity="1.000000" fill-rule="nonzero"/>
		<path id="Vector" d="M152.349 37.9494C151.801 37.9494 151.31 37.8248 150.875 37.5757C150.441 37.3195 150.103 36.9707 149.861 36.5294C149.619 36.0882 149.498 35.5971 149.498 35.0561C149.498 34.5152 149.619 34.0241 149.861 33.5828C150.103 33.1415 150.441 32.7963 150.875 32.5472C151.31 32.291 151.801 32.1629 152.349 32.1629C152.896 32.1629 153.388 32.291 153.822 32.5472C154.256 32.8034 154.594 33.1522 154.836 33.5935C155.078 34.0348 155.199 34.5223 155.199 35.0561C155.199 35.5971 155.078 36.0882 154.836 36.5294C154.594 36.9707 154.256 37.3195 153.822 37.5757C153.388 37.8248 152.896 37.9494 152.349 37.9494ZM152.349 36.8711C152.647 36.8711 152.925 36.7999 153.182 36.6576C153.438 36.5081 153.641 36.2981 153.79 36.0277C153.946 35.7501 154.024 35.4262 154.024 35.0561C154.024 34.686 153.946 34.3657 153.79 34.0953C153.641 33.8248 153.438 33.6184 153.182 33.476C152.925 33.3266 152.647 33.2518 152.349 33.2518C152.05 33.2518 151.772 33.3266 151.516 33.476C151.26 33.6184 151.053 33.8248 150.896 34.0953C150.747 34.3657 150.673 34.686 150.673 35.0561C150.673 35.4262 150.747 35.7501 150.896 36.0277C151.053 36.2981 151.26 36.5081 151.516 36.6576C151.772 36.7999 152.05 36.8711 152.349 36.8711Z" fill="#FFFFFF" fill-opacity="1.000000" fill-rule="nonzero"/>
		<path id="Vector" d="M145.863 37.9494C145.315 37.9494 144.824 37.8248 144.39 37.5757C143.956 37.3195 143.617 36.9707 143.376 36.5294C143.134 36.0882 143.013 35.5971 143.013 35.0561C143.013 34.5152 143.134 34.0241 143.376 33.5828C143.617 33.1415 143.956 32.7963 144.39 32.5472C144.824 32.291 145.315 32.1629 145.863 32.1629C146.411 32.1629 146.902 32.291 147.337 32.5472C147.771 32.8034 148.108 33.1522 148.351 33.5935C148.593 34.0348 148.714 34.5223 148.714 35.0561C148.714 35.5971 148.593 36.0882 148.351 36.5294C148.108 36.9707 147.771 37.3195 147.337 37.5757C146.902 37.8248 146.411 37.9494 145.863 37.9494ZM145.863 36.8711C146.162 36.8711 146.439 36.7999 146.696 36.6576C146.952 36.5081 147.155 36.2981 147.305 36.0277C147.461 35.7501 147.539 35.4262 147.539 35.0561C147.539 34.686 147.461 34.3657 147.305 34.0953C147.155 33.8248 146.952 33.6184 146.696 33.476C146.439 33.3266 146.162 33.2518 145.863 33.2518C145.564 33.2518 145.287 33.3266 145.03 33.476C144.774 33.6184 144.567 33.8248 144.411 34.0953C144.262 34.3657 144.188 34.686 144.188 35.0561C144.188 35.4262 144.262 35.7501 144.411 36.0277C144.567 36.2981 144.774 36.5081 145.03 36.6576C145.287 36.7999 145.564 36.8711 145.863 36.8711Z" fill="#FFFFFF" fill-opacity="1.000000" fill-rule="nonzero"/>
		<path id="Vector" d="M135.83 30.1344L137.025 30.1344L137.025 33.3052L140.57 33.3052L140.57 30.1344L141.756 30.1344L141.756 37.7786L140.57 37.7786L140.57 34.4369L137.025 34.4369L137.025 37.7786L135.83 37.7786L135.83 30.1344Z" fill="#FFFFFF" fill-opacity="1.000000" fill-rule="nonzero"/>
		<path id="Vector" d="M129.424 32.3337L130.545 32.3337L130.545 33.049L130.599 33.049C130.755 32.7928 130.986 32.5828 131.292 32.4191C131.605 32.2483 131.937 32.1629 132.285 32.1629C132.947 32.1629 133.449 32.3586 133.79 32.7501C134.139 33.1344 134.313 33.6611 134.313 34.3301L134.313 37.7786L133.139 37.7786L133.139 34.4903C133.139 34.0632 133.032 33.7501 132.819 33.5508C132.612 33.3515 132.324 33.2518 131.954 33.2518C131.69 33.2518 131.456 33.3266 131.249 33.476C131.043 33.6184 130.883 33.8106 130.769 34.0526C130.655 34.2945 130.599 34.5543 130.599 34.8319L130.599 37.7786L129.424 37.7786L129.424 32.3337Z" fill="#FFFFFF" fill-opacity="1.000000" fill-rule="nonzero"/>
		<path id="Vector" d="M127.375 31.5436C127.154 31.5436 126.966 31.4689 126.81 31.3194C126.66 31.1629 126.585 30.9742 126.585 30.7536C126.585 30.533 126.66 30.3479 126.81 30.1984C126.966 30.0419 127.154 29.9636 127.375 29.9636C127.596 29.9636 127.78 30.0419 127.93 30.1984C128.087 30.3479 128.165 30.533 128.165 30.7536C128.165 30.9742 128.087 31.1629 127.93 31.3194C127.78 31.4689 127.596 31.5436 127.375 31.5436ZM126.788 32.3337L127.962 32.3337L127.962 37.7786L126.788 37.7786L126.788 32.3337Z" fill="#FFFFFF" fill-opacity="1.000000" fill-rule="nonzero"/>
		<path id="Vector" d="M123.06 37.9494C122.675 37.9494 122.33 37.864 122.023 37.6932C121.718 37.5223 121.486 37.3159 121.33 37.0739L121.276 37.0739L121.276 37.7786L120.155 37.7786L120.155 30.1344L121.33 30.1344L121.33 32.2803L121.276 33.049L121.33 33.049C121.486 32.7999 121.718 32.5899 122.023 32.4191C122.33 32.2483 122.675 32.1629 123.06 32.1629C123.551 32.1629 123.995 32.2874 124.394 32.5365C124.792 32.7856 125.105 33.1308 125.333 33.5721C125.568 34.0063 125.686 34.501 125.686 35.0561C125.686 35.6113 125.568 36.1095 125.333 36.5508C125.105 36.985 124.792 37.3266 124.394 37.5757C123.995 37.8248 123.551 37.9494 123.06 37.9494ZM122.889 36.8711C123.173 36.8711 123.44 36.7963 123.689 36.6469C123.938 36.4974 124.138 36.2839 124.287 36.0063C124.437 35.7287 124.511 35.412 124.511 35.0561C124.511 34.7002 124.437 34.3871 124.287 34.1166C124.138 33.839 123.938 33.6255 123.689 33.476C123.44 33.3266 123.173 33.2518 122.889 33.2518C122.604 33.2518 122.337 33.3266 122.088 33.476C121.846 33.6255 121.65 33.839 121.5 34.1166C121.351 34.3871 121.276 34.7002 121.276 35.0561C121.276 35.412 121.351 35.7287 121.5 36.0063C121.65 36.2839 121.846 36.4974 122.088 36.6469C122.337 36.7963 122.604 36.8711 122.889 36.8711Z" fill="#FFFFFF" fill-opacity="1.000000" fill-rule="nonzero"/>
		<path id="Vector" d="M116.274 37.9494C115.727 37.9494 115.235 37.8248 114.801 37.5757C114.367 37.3195 114.029 36.9707 113.787 36.5294C113.545 36.0882 113.424 35.5971 113.424 35.0561C113.424 34.5152 113.545 34.0241 113.787 33.5828C114.029 33.1415 114.367 32.7963 114.801 32.5472C115.235 32.291 115.727 32.1629 116.274 32.1629C116.822 32.1629 117.313 32.291 117.748 32.5472C118.182 32.8034 118.52 33.1522 118.762 33.5935C119.004 34.0348 119.125 34.5223 119.125 35.0561C119.125 35.5971 119.004 36.0882 118.762 36.5294C118.52 36.9707 118.182 37.3195 117.748 37.5757C117.313 37.8248 116.822 37.9494 116.274 37.9494ZM116.274 36.8711C116.573 36.8711 116.851 36.7999 117.107 36.6576C117.363 36.5081 117.566 36.2981 117.716 36.0277C117.872 35.7501 117.95 35.4262 117.95 35.0561C117.95 34.686 117.872 34.3657 117.716 34.0953C117.566 33.8248 117.363 33.6184 117.107 33.476C116.851 33.3266 116.573 33.2518 116.274 33.2518C115.976 33.2518 115.698 33.3266 115.441 33.476C115.186 33.6184 114.979 33.8248 114.822 34.0953C114.673 34.3657 114.599 34.686 114.599 35.0561C114.599 35.4262 114.673 35.7501 114.822 36.0277C114.979 36.2981 115.186 36.5081 115.441 36.6576C115.698 36.7999 115.976 36.8711 116.274 36.8711Z" fill="#FFFFFF" fill-opacity="1.000000" fill-rule="nonzero"/>
		<path id="Vector" d="M107.481 30.1344L110.172 30.1344C110.627 30.1344 111.044 30.234 111.421 30.4333C111.798 30.6326 112.094 30.9102 112.307 31.2661C112.527 31.6219 112.638 32.0241 112.638 32.4725C112.638 32.9849 112.471 33.4405 112.137 33.839C111.809 34.2376 111.396 34.5045 110.897 34.6397L110.887 34.6931L112.979 37.7145L112.979 37.7786L111.592 37.7786L109.574 34.7892L108.677 34.7892L108.677 37.7786L107.481 37.7786L107.481 30.1344ZM110.14 33.6789C110.496 33.6789 110.798 33.565 111.047 33.3372C111.297 33.1095 111.421 32.8177 111.421 32.4618C111.421 32.2625 111.371 32.0703 111.271 31.8853C111.172 31.7002 111.029 31.5508 110.845 31.4369C110.659 31.3159 110.438 31.2554 110.183 31.2554L108.677 31.2554L108.677 33.6789L110.14 33.6789Z" fill="#FFFFFF" fill-opacity="1.000000" fill-rule="nonzero"/>
		<path id="Vector" d="M100.604 37.4796L98.3408 32.3337L99.6543 32.3337L101.191 36.0383L101.234 36.0383L102.729 32.3337L104.021 32.3337L100.657 40.0846L99.4189 40.0846L100.604 37.4796Z" fill="#FFFFFF" fill-opacity="1.000000" fill-rule="nonzero"/>
		<path id="Vector" d="M95.4521 37.9494C95.0674 37.9494 94.7227 37.864 94.416 37.6932C94.1104 37.5223 93.8789 37.3159 93.7227 37.0739L93.6689 37.0739L93.6689 37.7786L92.5479 37.7786L92.5479 30.1344L93.7227 30.1344L93.7227 32.2803L93.6689 33.049L93.7227 33.049C93.8789 32.7999 94.1104 32.5899 94.416 32.4191C94.7227 32.2483 95.0674 32.1629 95.4521 32.1629C95.9434 32.1629 96.3877 32.2874 96.7861 32.5365C97.1846 32.7856 97.498 33.1308 97.7256 33.5721C97.9609 34.0063 98.0781 34.501 98.0781 35.0561C98.0781 35.6113 97.9609 36.1095 97.7256 36.5508C97.498 36.985 97.1846 37.3266 96.7861 37.5757C96.3877 37.8248 95.9434 37.9494 95.4521 37.9494ZM95.2812 36.8711C95.5654 36.8711 95.833 36.7963 96.082 36.6469C96.3311 36.4974 96.5303 36.2839 96.6797 36.0063C96.8291 35.7287 96.9033 35.412 96.9033 35.0561C96.9033 34.7002 96.8291 34.3871 96.6797 34.1166C96.5303 33.839 96.3311 33.6255 96.082 33.476C95.833 33.3266 95.5654 33.2518 95.2812 33.2518C94.9961 33.2518 94.7295 33.3266 94.4805 33.476C94.2383 33.6255 94.043 33.839 93.8926 34.1166C93.7432 34.3871 93.6689 34.7002 93.6689 35.0561C93.6689 35.412 93.7432 35.7287 93.8926 36.0063C94.043 36.2839 94.2383 36.4974 94.4805 36.6469C94.7295 36.7963 94.9961 36.8711 95.2812 36.8711Z" fill="#FFFFFF" fill-opacity="1.000000" fill-rule="nonzero"/>
		<path id="Vector" d="M85.7725 37.9494C85.2812 37.9494 84.8369 37.8248 84.4385 37.5757C84.04 37.3266 83.7227 36.985 83.4883 36.5508C83.2607 36.1095 83.1465 35.6113 83.1465 35.0561C83.1465 34.501 83.2607 34.0063 83.4883 33.5721C83.7227 33.1308 84.04 32.7856 84.4385 32.5365C84.8369 32.2874 85.2812 32.1629 85.7725 32.1629C86.1572 32.1629 86.502 32.2483 86.8086 32.4191C87.1143 32.5899 87.3457 32.7999 87.502 33.049L87.5557 33.049L87.502 32.2803L87.502 30.1344L88.6768 30.1344L88.6768 37.7786L87.5557 37.7786L87.5557 37.0739L87.502 37.0739C87.3457 37.3159 87.1143 37.5223 86.8086 37.6932C86.502 37.864 86.1572 37.9494 85.7725 37.9494ZM85.9434 36.8711C86.2285 36.8711 86.4922 36.7963 86.7334 36.6469C86.9824 36.4974 87.1816 36.2839 87.332 36.0063C87.4814 35.7287 87.5557 35.412 87.5557 35.0561C87.5557 34.7002 87.4814 34.3871 87.332 34.1166C87.1816 33.839 86.9824 33.6255 86.7334 33.476C86.4922 33.3266 86.2285 33.2518 85.9434 33.2518C85.6592 33.2518 85.3916 33.3266 85.1426 33.476C84.8936 33.6255 84.6943 33.839 84.5449 34.1166C84.3955 34.3871 84.3213 34.7002 84.3213 35.0561C84.3213 35.412 84.3955 35.7287 84.5449 36.0063C84.6943 36.2839 84.8936 36.4974 85.1426 36.6469C85.3916 36.7963 85.6592 36.8711 85.9434 36.8711Z" fill="#FFFFFF" fill-opacity="1.000000" fill-rule="nonzero"/>
		<path id="Vector" d="M79.7295 37.9494C79.1963 37.9494 78.7158 37.8248 78.2881 37.5757C77.8682 37.3266 77.5381 36.985 77.2959 36.5508C77.0605 36.1095 76.9434 35.6148 76.9434 35.0668C76.9434 34.5472 77.0576 34.0668 77.2852 33.6255C77.5195 33.1771 77.8438 32.8212 78.2568 32.5579C78.6689 32.2945 79.1387 32.1629 79.666 32.1629C80.2139 32.1629 80.6875 32.2839 81.0859 32.5259C81.4912 32.7679 81.7979 33.0988 82.0039 33.5187C82.2178 33.9387 82.3242 34.412 82.3242 34.9387C82.3242 35.0383 82.3135 35.1629 82.292 35.3124L78.1182 35.3124C78.1602 35.8177 78.3389 36.2092 78.6514 36.4867C78.9717 36.7572 79.3418 36.8924 79.7617 36.8924C80.0967 36.8924 80.3848 36.8177 80.627 36.6682C80.876 36.5117 81.0752 36.3017 81.2246 36.0383L82.2178 36.5081C81.9609 36.9565 81.627 37.3088 81.2139 37.565C80.8008 37.8213 80.3066 37.9494 79.7295 37.9494ZM81.1289 34.4156C81.1143 34.2234 81.0537 34.0348 80.9473 33.8497C80.8398 33.6575 80.6768 33.4974 80.4561 33.3693C80.2422 33.2412 79.9785 33.1771 79.666 33.1771C79.2881 33.1771 78.9688 33.291 78.7051 33.5187C78.4482 33.7394 78.2705 34.0383 78.1709 34.4156L81.1289 34.4156Z" fill="#FFFFFF" fill-opacity="1.000000" fill-rule="nonzero"/>
		<path id="Vector" d="M73.249 32.3337L74.3701 32.3337L74.3701 33.1344L74.4238 33.1344C74.5439 32.8568 74.7539 32.6291 75.0537 32.4511C75.3525 32.2661 75.6689 32.1736 76.0039 32.1736C76.2666 32.1736 76.4873 32.2091 76.665 32.2803L76.665 33.4974C76.3525 33.3835 76.0713 33.3266 75.8223 33.3266C75.5518 33.3266 75.3096 33.3978 75.0957 33.5401C74.8896 33.6825 74.7256 33.8746 74.6045 34.1166C74.4844 34.3515 74.4238 34.6113 74.4238 34.896L74.4238 37.7786L73.249 37.7786L73.249 32.3337Z" fill="#FFFFFF" fill-opacity="1.000000" fill-rule="nonzero"/>
		<path id="Vector" d="M69.585 37.9494C69.0518 37.9494 68.5713 37.8248 68.1436 37.5757C67.7236 37.3266 67.3936 36.985 67.1514 36.5508C66.916 36.1095 66.7988 35.6148 66.7988 35.0668C66.7988 34.5472 66.9131 34.0668 67.1406 33.6255C67.375 33.1771 67.6992 32.8212 68.1123 32.5579C68.5244 32.2945 68.9941 32.1629 69.5215 32.1629C70.0693 32.1629 70.543 32.2839 70.9414 32.5259C71.3467 32.7679 71.6533 33.0988 71.8594 33.5187C72.0732 33.9387 72.1797 34.412 72.1797 34.9387C72.1797 35.0383 72.1689 35.1629 72.1475 35.3124L67.9736 35.3124C68.0156 35.8177 68.1943 36.2092 68.5068 36.4867C68.8271 36.7572 69.1973 36.8924 69.6172 36.8924C69.9521 36.8924 70.2402 36.8177 70.4824 36.6682C70.7314 36.5117 70.9307 36.3017 71.0801 36.0383L72.0732 36.5081C71.8164 36.9565 71.4824 37.3088 71.0693 37.565C70.6562 37.8213 70.1621 37.9494 69.585 37.9494ZM70.9844 34.4156C70.9697 34.2234 70.9092 34.0348 70.8027 33.8497C70.6953 33.6575 70.5322 33.4974 70.3115 33.3693C70.0977 33.2412 69.834 33.1771 69.5215 33.1771C69.1436 33.1771 68.8242 33.291 68.5605 33.5187C68.3037 33.7394 68.126 34.0383 68.0264 34.4156L70.9844 34.4156Z" fill="#FFFFFF" fill-opacity="1.000000" fill-rule="nonzero"/>
		<path id="Vector" d="M57.9922 32.3337L59.2627 32.3337L60.3623 36.2305L60.4053 36.2305L61.6328 32.3337L62.8389 32.3337L64.0566 36.2305L64.0986 36.2305L65.1982 32.3337L66.4482 32.3337L64.708 37.7786L63.4688 37.7786L62.2197 33.8711L62.1875 33.8711L60.9492 37.7786L59.7324 37.7786L57.9922 32.3337Z" fill="#FFFFFF" fill-opacity="1.000000" fill-rule="nonzero"/>
		<path id="Vector" d="M54.7715 37.9494C54.2236 37.9494 53.7324 37.8248 53.2979 37.5757C52.8643 37.3195 52.5264 36.9707 52.2842 36.5294C52.042 36.0882 51.9209 35.5971 51.9209 35.0561C51.9209 34.5152 52.042 34.0241 52.2842 33.5828C52.5264 33.1415 52.8643 32.7963 53.2979 32.5472C53.7324 32.291 54.2236 32.1629 54.7715 32.1629C55.3193 32.1629 55.8105 32.291 56.2451 32.5472C56.6787 32.8034 57.0166 33.1522 57.2588 33.5935C57.501 34.0348 57.6221 34.5223 57.6221 35.0561C57.6221 35.5971 57.501 36.0882 57.2588 36.5294C57.0166 36.9707 56.6787 37.3195 56.2451 37.5757C55.8105 37.8248 55.3193 37.9494 54.7715 37.9494ZM54.7715 36.8711C55.0703 36.8711 55.3477 36.7999 55.6045 36.6576C55.8604 36.5081 56.0635 36.2981 56.2129 36.0277C56.3691 35.7501 56.4473 35.4262 56.4473 35.0561C56.4473 34.686 56.3691 34.3657 56.2129 34.0953C56.0635 33.8248 55.8604 33.6184 55.6045 33.476C55.3477 33.3266 55.0703 33.2518 54.7715 33.2518C54.4727 33.2518 54.1953 33.3266 53.9385 33.476C53.6826 33.6184 53.4756 33.8248 53.3193 34.0953C53.1699 34.3657 53.0957 34.686 53.0957 35.0561C53.0957 35.4262 53.1699 35.7501 53.3193 36.0277C53.4756 36.2981 53.6826 36.5081 53.9385 36.6576C54.1953 36.7999 54.4727 36.8711 54.7715 36.8711Z" fill="#FFFFFF" fill-opacity="1.000000" fill-rule="nonzero"/>
		<path id="Vector" d="M46.4375 30.1344L49.085 30.1344C49.5332 30.1344 49.9463 30.234 50.3232 30.4333C50.708 30.6326 51.0107 30.9102 51.2314 31.2661C51.459 31.6219 51.5732 32.0241 51.5732 32.4725C51.5732 32.9209 51.459 33.323 51.2314 33.6789C51.0107 34.0348 50.708 34.3123 50.3232 34.5116C49.9463 34.7109 49.5332 34.8106 49.085 34.8106L47.6328 34.8106L47.6328 37.7786L46.4375 37.7786L46.4375 30.1344ZM49.1064 33.6789C49.3701 33.6789 49.5977 33.6219 49.79 33.5081C49.9824 33.3871 50.1279 33.234 50.2275 33.049C50.3271 32.8639 50.377 32.6718 50.377 32.4725C50.377 32.2732 50.3271 32.081 50.2275 31.896C50.1279 31.7109 49.9824 31.5614 49.79 31.4476C49.5977 31.3337 49.3701 31.2767 49.1064 31.2767L47.6328 31.2767L47.6328 33.6789L49.1064 33.6789Z" fill="#FFFFFF" fill-opacity="1.000000" fill-rule="nonzero"/>
	</g>
</svg>
