<svg width="50.000000" height="50.000000" viewBox="0 0 50 50" fill="none" xmlns="http://www.w3.org/2000/svg" xmlns:xlink="http://www.w3.org/1999/xlink">
    <defs/>
    <path id="Icon (Stroke)" d="M0 25C0 11.1929 11.1929 0 25 0C38.8071 0 50 11.1929 50 25C50 38.8071 38.8071 50 25 50C11.1929 50 0 38.8071 0 25ZM25 5C13.9541 5 5 13.9543 5 25C5 36.0457 13.9541 45 25 45C36.0459 45 45 36.0457 45 25C45 13.9543 36.0459 5 25 5ZM17.5806 11.6165C19.1089 10.903 20.7153 11.3241 21.8472 12.0411L21.9209 12.088L34.8188 21.5854C35.8682 22.2228 37.1709 23.3927 37.1733 25.2344C37.1758 27.0752 35.8638 28.291 34.8379 28.9673L21.9883 37.9546L21.873 38.0181C20.8125 38.6052 19.1392 39.1746 17.5215 38.3105C15.8779 37.4329 15.4336 35.6927 15.3579 34.4211L15.3535 34.3505L15.2993 15.6005C15.2749 14.0492 15.9233 12.3903 17.5806 11.6165ZM20.3037 17.1063L31.395 25.2737L20.3496 32.9989L20.3037 17.1063Z" fill="#C1F53D" fill-opacity="1.000000" fill-rule="evenodd"/>
</svg>
